# xmcd
#
# Track frame offsets:
#	150
#	14020
#	30822
#
# Disc length: 614 seconds
#
# Revision: 0
# Processed by: cddbd v1.5.2PL0 Copyright (c) Steve Scherf et al.
# Submitted via: audiograbber 1.83.01
#
DISCID=16026403
DTITLE=Jasmine - Pieni Sinikello [CDM)
DYEAR=1995
DGENRE=Pop
TTITLE0=Pieni Sinikello
TTITLE1=Yön Tähdet
TTITLE2=Tule Luoksein Kulta
EXTD=TR.
EXTT0=
EXTT1=
EXTT2=
PLAYORDER=
